<svg xmlns="http://www.w3.org/2000/svg" width="24" height="24" fill="none" viewBox="0 0 24 24"><path fill="#fff" stroke="#3C3636" stroke-linecap="round" stroke-linejoin="round" stroke-width="2" d="M7 3H17C18.1046 3 19 3.89543 19 5V21H5V5C5 3.89543 5.89543 3 7 3Z"/><mask id="path-2-inside-1" fill="#fff"><rect width="4" height="3" x="7" y="5" rx=".5"/></mask><rect width="4" height="3" x="7" y="5" stroke="#3C3636" stroke-width="2" mask="url(#path-2-inside-1)" rx=".5"/><mask id="path-3-inside-2" fill="#fff"><rect width="4" height="3" x="13" y="5" rx=".5"/></mask><rect width="4" height="3" x="13" y="5" stroke="#3C3636" stroke-width="2" mask="url(#path-3-inside-2)" rx=".5"/><mask id="path-4-inside-3" fill="#fff"><rect width="4" height="3" x="7" y="10" rx=".5"/></mask><rect width="4" height="3" x="7" y="10" stroke="#3C3636" stroke-width="2" mask="url(#path-4-inside-3)" rx=".5"/><mask id="path-5-inside-4" fill="#fff"><rect width="4" height="3" x="13" y="10" rx=".5"/></mask><rect width="4" height="3" x="13" y="10" stroke="#3C3636" stroke-width="2" mask="url(#path-5-inside-4)" rx=".5"/><mask id="path-6-inside-5" fill="#fff"><rect width="4" height="6" x="13" y="15" rx=".5"/></mask><rect width="4" height="6" x="13" y="15" stroke="#3C3636" stroke-width="2" mask="url(#path-6-inside-5)" rx=".5"/></svg>