<svg xmlns="http://www.w3.org/2000/svg" width="252" height="260" fill="none" viewBox="0 0 252 260"><path fill="#DED9D9" d="M72.5854 175.368L76.1334 152.47H123.44L126.988 173.733C120.483 177.004 105.818 183.546 99.1954 183.546C92.5725 183.546 78.6959 178.094 72.5854 175.368Z"/><g filter="url(#filter0_d)"><path fill="#F4F0F0" d="M69.6286 145.896L67.8546 116.016H65.4893V112.43H134.675V116.016H132.901L130.536 145.299C125.411 152.869 112.205 168.008 100.378 168.008C88.5513 168.008 74.9506 153.267 69.6286 145.896Z"/><path stroke="#DED9D9" d="M69.6286 145.896L67.8546 116.016H65.4893V112.43H134.675V116.016H132.901L130.536 145.299C125.411 152.869 112.205 168.008 100.378 168.008C88.5513 168.008 74.9506 153.267 69.6286 145.896Z"/></g><path fill="#CCC2C3" d="M93.8735 73.5857C93.8735 71.6054 95.4789 70 97.4592 70H103.297C105.278 70 106.883 71.6054 106.883 73.5857C106.883 75.566 105.278 77.1713 103.297 77.1713H100.378H97.4592C95.4789 77.1713 93.8735 75.566 93.8735 73.5857Z"/><rect width="76.873" height="5.976" x="61.941" y="110.637" fill="#A09595" rx="2.988"/><rect width="72.143" height="7.171" x="64.307" y="103.466" fill="#6B6363" rx="3.586"/><path fill="#A09595" d="M132.901 104.064C132.901 105.259 100.378 103.466 100.378 103.466L67.8545 104.064C67.8545 84.9403 82.4157 73.5857 100.378 73.5857C118.34 73.5857 132.901 84.3427 132.901 104.064Z"/><rect width="13.009" height="29.881" x="93.873" y="73.586" fill="#CCC2C3"/><rect width="35" height="8.367" x="83.595" y="97.49" fill="#CCC2C3" rx="2"/><ellipse cx="100.969" cy="101.076" fill="#6B6363" rx="11.827" ry="11.952"/><mask id="mask0" width="18" height="18" x="92" y="92" mask-type="alpha" maskUnits="userSpaceOnUse"><ellipse cx="100.969" cy="101.076" fill="#C4C4C4" rx="8.279" ry="8.367"/></mask><g mask="url(#mask0)"><ellipse cx="100.969" cy="102.271" fill="#DED9D9" rx="9.461" ry="9.562"/><path fill="#fff" d="M93.873 108.247L98.6037 92.7092C100.023 91.2749 102.349 92.1116 103.334 92.7092L97.421 111.235C96.0018 111.235 94.4644 109.243 93.873 108.247Z"/><path fill="#fff" d="M107.474 94.502L105.7 93.3068L100.969 110.04H102.743L107.474 94.502Z"/></g><path fill="#A09595" d="M30.0093 195.498C21.9672 199.323 17.9856 213.426 17 220H181.982C182.455 208.526 173.506 198.884 168.973 195.498L133.493 179.363L129.353 171.594C122.454 174.183 106.883 179.363 99.7866 179.363C92.6906 179.363 76.7246 174.183 69.6287 171.594L66.0807 179.363C57.4078 183.147 38.0515 191.673 30.0093 195.498Z"/><circle cx="162.5" cy="222.5" r="37.5" fill="#5E46A1"/><path fill="#fff" fill-rule="evenodd" d="M181.25 240.5L142.25 206.75L145.522 202.969L184.522 236.719L181.25 240.5Z" clip-rule="evenodd"/><path fill="#fff" fill-rule="evenodd" d="M183.219 205.531L146.75 242L143.214 238.465L179.684 201.995L183.219 205.531Z" clip-rule="evenodd"/><defs><filter id="filter0_d" width="73.186" height="59.578" x="63.489" y="110.43" color-interpolation-filters="sRGB" filterUnits="userSpaceOnUse"><feFlood flood-opacity="0" result="BackgroundImageFix"/><feColorMatrix in="SourceAlpha" type="matrix" values="0 0 0 0 0 0 0 0 0 0 0 0 0 0 0 0 0 0 127 0"/><feOffset/><feGaussianBlur stdDeviation="1"/><feColorMatrix type="matrix" values="0 0 0 0 0 0 0 0 0 0 0 0 0 0 0 0 0 0 0.25 0"/><feBlend in2="BackgroundImageFix" mode="normal" result="effect1_dropShadow"/><feBlend in="SourceGraphic" in2="effect1_dropShadow" mode="normal" result="shape"/></filter></defs></svg>